<svg width="60" height="60" viewBox="0 0 60 60" fill="none" xmlns="http://www.w3.org/2000/svg">
<rect width="60" height="60" fill="#95E82C"/>
<g clip-path="url(#clip0_2_218)">
<path d="M36.0628 15H23.9372C19.0092 15 15 19.0092 15 23.9372V36.0628C15 40.9908 19.0092 45 23.9372 45H36.0628C40.9908 45 45 40.9908 45 36.0628V23.9372C44.9999 19.0092 40.9908 15 36.0628 15ZM41.982 36.0628C41.982 39.3319 39.3319 41.982 36.0628 41.982H23.9372C20.6681 41.982 18.018 39.3319 18.018 36.0628V23.9372C18.018 20.6681 20.6681 18.018 23.9372 18.018H36.0628C39.3319 18.018 41.982 20.6681 41.982 23.9372V36.0628Z" fill="black"/>
<path d="M30 22.2409C25.7216 22.2409 22.2409 25.7216 22.2409 29.9999C22.2409 34.2782 25.7216 37.759 30 37.759C34.2783 37.759 37.759 34.2783 37.759 29.9999C37.759 25.7216 34.2783 22.2409 30 22.2409ZM30 34.741C27.3815 34.741 25.2589 32.6184 25.2589 30C25.2589 27.3815 27.3816 25.2589 30 25.2589C32.6184 25.2589 34.741 27.3815 34.741 30C34.741 32.6184 32.6184 34.741 30 34.741Z" fill="black"/>
<path d="M37.7741 24.1584C38.8009 24.1584 39.6333 23.326 39.6333 22.2992C39.6333 21.2723 38.8009 20.4399 37.7741 20.4399C36.7473 20.4399 35.9149 21.2723 35.9149 22.2992C35.9149 23.326 36.7473 24.1584 37.7741 24.1584Z" fill="black"/>
</g>
<defs>
<clipPath id="clip0_2_218">
<rect width="30" height="30" fill="white" transform="translate(15 15)"/>
</clipPath>
</defs>
</svg>
