<svg width="60" height="60" viewBox="0 0 60 60" fill="none" xmlns="http://www.w3.org/2000/svg">
<rect width="60" height="60" fill="#95E82C"/>
<mask id="mask0_2_224" style="mask-type:alpha" maskUnits="userSpaceOnUse" x="15" y="15" width="30" height="30">
<rect x="15" y="15" width="30" height="30" fill="#C4C4C4"/>
</mask>
<g mask="url(#mask0_2_224)">
<path fill-rule="evenodd" clip-rule="evenodd" d="M44.3116 22.2188C44.5201 21.5163 44.3116 21 43.3191 21H40.0371C39.2026 21 38.8178 21.446 38.6092 21.9378C38.6092 21.9378 36.9402 26.0478 34.5758 28.7175C33.8109 29.4904 33.4631 29.7362 33.0459 29.7362C32.8373 29.7362 32.5353 29.4904 32.5353 28.7878V22.2188C32.5353 21.3757 32.2931 21 31.5976 21H26.4402C25.9187 21 25.605 21.3913 25.605 21.7622C25.605 22.5614 26.7872 22.7457 26.909 24.994V29.8768C26.909 30.9474 26.7177 31.1415 26.3004 31.1415C25.1878 31.1415 22.4813 27.0131 20.8762 22.2891C20.5616 21.3709 20.2461 21 19.4073 21H16.1253C15.1876 21 15 21.446 15 21.9378C15 22.816 16.1127 27.1719 20.1808 32.933C22.8929 36.8673 26.714 39 30.191 39C32.2772 39 32.5353 38.5263 32.5353 37.7104V34.7368C32.5353 33.7895 32.733 33.6004 33.3936 33.6004C33.8804 33.6004 34.7149 33.8463 36.6621 35.7432C38.8874 37.9914 39.2542 39 40.5059 39H43.7879C44.7257 39 45.1945 38.5263 44.924 37.5915C44.6281 36.6599 43.5656 35.3081 42.1558 33.7058C41.3908 32.7925 40.2434 31.8089 39.8957 31.317C39.4089 30.6848 39.548 30.4037 39.8957 29.8417C39.8957 29.8417 43.8943 24.1509 44.3116 22.2188Z" fill="black"/>
</g>
</svg>
