<svg width="150" height="170" viewBox="0 0 150 170" fill="none" xmlns="http://www.w3.org/2000/svg">
<path fill-rule="evenodd" clip-rule="evenodd" d="M114.5 18.3425H114.095V9.91298C114.095 7.66369 112.267 5.84015 110.015 5.84015C107.764 5.84015 105.936 7.66369 105.936 9.91298V4.07236C105.936 1.82307 104.109 0 101.857 0C99.6005 0 97.7732 1.82307 97.7732 4.07236C97.7732 1.82307 95.9507 0 93.6941 0C91.4422 0 89.615 1.82307 89.615 4.07236V19.2331H87.9022C88.1121 19.4536 88.3173 19.6774 88.5081 19.9107C88.8039 20.2665 89.0854 20.6346 89.3287 21.0437C88.9184 20.8028 88.5463 20.5213 88.1932 20.2279C87.8354 19.9327 87.4967 19.6217 87.1722 19.2964L87.1613 19.2846C87.1457 19.2676 87.1295 19.25 87.1102 19.2331H86.4137C86.3946 19.254 86.3755 19.2759 86.3516 19.2964C86.0415 19.6088 85.7171 19.9069 85.3736 20.1917C85.5883 20.4613 85.7887 20.7413 85.9652 21.0437C85.6503 20.8589 85.3593 20.6499 85.0826 20.4303C84.8011 20.6499 84.5148 20.8589 84.2 21.0437C84.3765 20.7413 84.5769 20.4613 84.7916 20.1917C84.4481 19.9069 84.1236 19.6088 83.8135 19.2964C83.7897 19.2759 83.7706 19.254 83.7515 19.2331H83.0549C83.0356 19.25 83.0194 19.2677 83.0038 19.2846L82.9929 19.2964C82.6828 19.6088 82.3536 19.9069 82.0149 20.1917C82.2248 20.4613 82.4252 20.7413 82.6065 21.0437C82.2916 20.8589 82.0006 20.6499 81.7191 20.4303C81.4424 20.6499 81.1513 20.8589 80.8365 21.0437C81.0178 20.7413 81.2182 20.4613 81.4281 20.1917C81.0893 19.9069 80.7649 19.6088 80.45 19.2964C80.4386 19.2841 80.4271 19.2713 80.4156 19.2585L80.3928 19.2331H79.6914L79.6842 19.241C79.6675 19.2595 79.6503 19.2785 79.6294 19.2964C79.3193 19.6088 78.9949 19.9069 78.6514 20.1917C78.8661 20.4613 79.0664 20.7413 79.243 21.0437C78.9281 20.8589 78.6418 20.6499 78.3603 20.4303C78.0789 20.6499 77.7926 20.8589 77.4777 21.0437C77.6543 20.7413 77.8594 20.4613 78.0693 20.1917C77.7258 19.9069 77.4014 19.6088 77.0913 19.2964C77.0704 19.2785 77.0532 19.2595 77.0365 19.241L77.0293 19.2331H76.3327C76.3134 19.25 76.2972 19.2677 76.2816 19.2846L76.2707 19.2964C75.9606 19.6088 75.6314 19.9069 75.2927 20.1917C75.5026 20.4613 75.703 20.7413 75.8843 21.0437C75.5694 20.8589 75.2784 20.6499 75.0016 20.4303C74.7202 20.6499 74.4291 20.8589 74.1142 21.0437C74.2955 20.7413 74.4959 20.4613 74.7058 20.1917C74.3671 19.9069 74.0427 19.6088 73.7278 19.2964L73.7085 19.2753L73.6934 19.2585L73.6705 19.2331H72.9692C72.9501 19.254 72.9311 19.2759 72.912 19.2964C72.5971 19.6088 72.2727 19.9069 71.9292 20.1917C72.1439 20.4613 72.3442 20.7413 72.5208 21.0437C72.2107 20.8589 71.9196 20.6499 71.6382 20.4303C71.3614 20.6499 71.0704 20.8589 70.7555 21.0437C70.9321 20.7413 71.1372 20.4613 71.3471 20.1917C71.0084 19.9069 70.6792 19.6088 70.3691 19.2964C70.35 19.2759 70.3261 19.254 70.307 19.2331H69.6105C69.5988 19.2433 69.5895 19.2538 69.5801 19.2642C69.5704 19.2751 69.5607 19.286 69.5485 19.2964C69.2384 19.6088 68.9092 19.9069 68.5705 20.1917C68.7804 20.4613 68.9807 20.7413 69.162 21.0437C68.8471 20.8589 68.5561 20.6499 68.2794 20.4303C67.9979 20.6499 67.7069 20.8589 67.3968 21.0437C67.5733 20.7413 67.7737 20.4613 67.9836 20.1917C67.6449 19.9069 67.3204 19.6088 67.0056 19.2964C66.9942 19.2842 66.9828 19.2715 66.9715 19.2587L66.9483 19.2331H66.247L66.2242 19.2585L66.2114 19.2727L66.1898 19.2964C65.8749 19.6088 65.5504 19.9069 65.2117 20.1917C65.4216 20.4613 65.622 20.7413 65.7985 21.0437C65.4884 20.8589 65.1974 20.6499 64.9159 20.4303C64.6392 20.6499 64.3482 20.8589 64.0333 21.0437C64.2146 20.7413 64.415 20.4613 64.6249 20.1917C64.2862 19.9069 63.9617 19.6088 63.6469 19.2964L63.636 19.2846C63.6204 19.2676 63.6042 19.25 63.5849 19.2331H62.8883L62.881 19.241C62.8643 19.2595 62.8471 19.2785 62.8263 19.2964C62.5018 19.6217 62.1631 19.9327 61.8053 20.2279C61.4522 20.5213 61.0849 20.8028 60.6746 21.0437C60.9131 20.6346 61.1946 20.2665 61.4904 19.9107C61.686 19.6774 61.8912 19.4536 62.0963 19.2331H60.3835V4.07236C60.3835 1.82307 58.5563 0 56.3044 0C54.0525 0 52.2253 1.82307 52.2253 4.07236C52.2253 1.82307 50.398 0 48.1461 0C45.8895 0 44.0623 1.82307 44.0623 4.07236V9.91298C44.0623 7.66369 42.2397 5.84015 39.9879 5.84015H39.9831C37.7312 5.84015 35.904 7.66369 35.904 9.91298V18.3425H35.4985C34.3964 18.3425 33.4994 19.235 33.4994 20.3356V25.5047C33.4994 26.6053 34.3964 27.4978 35.4985 27.4978H35.904V35.9273C35.904 38.1766 37.7312 40.0001 39.9831 40.0001H39.9879C42.2397 40.0001 44.0623 38.1766 44.0623 35.9273V41.7679C44.0623 44.0172 45.8895 45.8407 48.1461 45.8407C50.398 45.8407 52.2253 44.0172 52.2253 41.7679C52.2253 44.0172 54.0525 45.8407 56.3044 45.8407C58.5563 45.8407 60.3835 44.0172 60.3835 41.7679V26.6072H89.615V41.7679C89.615 44.0172 91.4422 45.8407 93.6941 45.8407C95.9507 45.8407 97.7732 44.0172 97.7732 41.7679C97.7732 44.0172 99.6005 45.8407 101.857 45.8407C104.109 45.8407 105.936 44.0172 105.936 41.7679V35.9273C105.936 38.1766 107.764 40.0001 110.015 40.0001C112.267 40.0001 114.095 38.1766 114.095 35.9273V27.4978H114.5C115.607 27.4978 116.499 26.6053 116.499 25.5047V20.3356C116.499 19.235 115.607 18.3425 114.5 18.3425ZM110.636 17.4595C110.512 18.3944 110.345 19.3288 110.015 20.2637C109.686 19.3288 109.519 18.3944 109.395 17.4595C109.281 16.5251 109.228 15.5903 109.228 14.6554C109.233 13.721 109.285 12.7862 109.4 11.8518C109.524 10.9169 109.686 9.98204 110.015 9.04765C110.345 9.98204 110.507 10.9169 110.631 11.8518C110.745 12.7862 110.798 13.721 110.803 14.6554C110.803 15.5903 110.745 16.5251 110.636 17.4595ZM102.473 11.8518C102.349 12.7862 102.186 13.721 101.857 14.6554C101.523 13.721 101.361 12.7862 101.237 11.8518C101.122 10.9169 101.07 9.98204 101.07 9.04765C101.07 8.11279 101.122 7.17841 101.242 6.24354C101.361 5.30915 101.528 4.3743 101.857 3.43943C102.182 4.3743 102.349 5.30915 102.473 6.24354C102.587 7.17841 102.64 8.11279 102.64 9.04765C102.644 9.98204 102.587 10.9169 102.473 11.8518ZM94.3143 11.8518C94.1903 12.7862 94.0233 13.721 93.6941 14.6554C93.3649 13.721 93.1979 12.7862 93.0786 11.8518C92.9641 10.9169 92.9116 9.98204 92.9116 9.04765C92.9116 8.11279 92.9641 7.17841 93.0786 6.24354C93.2027 5.30915 93.3697 4.3743 93.6941 3.43943C94.0233 4.3743 94.1903 5.30915 94.3096 6.24354C94.4241 7.17841 94.4813 8.11279 94.4813 9.04765C94.4813 9.98204 94.4288 10.9169 94.3143 11.8518ZM56.9246 11.8518C56.8006 12.7862 56.6336 13.721 56.3044 14.6554C55.9752 13.721 55.8082 12.7862 55.6842 11.8518C55.5697 10.9169 55.5172 9.98204 55.5172 9.04765C55.522 8.11279 55.5745 7.17841 55.689 6.24354C55.813 5.30915 55.9752 4.3743 56.3044 3.43943C56.6336 4.3743 56.7958 5.30915 56.9199 6.24354C57.0344 7.17841 57.0868 8.11279 57.0916 9.04765C57.0916 9.98204 57.0344 10.9169 56.9246 11.8518ZM48.7616 11.8518C48.6376 12.7862 48.4753 13.721 48.1461 14.6554C47.8169 13.721 47.65 12.7862 47.5259 11.8518C47.4114 10.9169 47.3589 9.98204 47.3589 9.04765C47.3589 8.11279 47.4162 7.17841 47.5307 6.24354C47.65 5.30915 47.8169 4.3743 48.1461 3.43943C48.4706 4.3743 48.6376 5.30915 48.7616 6.24354C48.8761 7.17841 48.9286 8.11279 48.9286 9.04765C48.9334 9.98204 48.8761 10.9169 48.7616 11.8518ZM40.6033 17.4595C40.4793 18.3944 40.3123 19.3288 39.9879 20.2637C39.6539 19.3288 39.4917 18.3944 39.3677 17.4595C39.2532 16.5251 39.1959 15.5903 39.2007 14.6554C39.2007 13.721 39.2532 12.7862 39.3677 11.8518C39.4917 10.9169 39.6587 9.98204 39.9879 9.04765C40.3123 9.98204 40.4793 10.9169 40.6033 11.8518C40.7131 12.7862 40.7703 13.721 40.7703 14.6554C40.7703 15.5903 40.7178 16.5251 40.6033 17.4595Z" fill="white"/>
<path d="M81.7201 19.8346C81.8979 19.6289 82.0758 19.4294 82.2628 19.2328H81.1819C81.3643 19.4294 81.5467 19.6289 81.7201 19.8346Z" fill="white"/>
<path d="M123.943 25.5143V19.2377H150V133.925L75 170L0 133.925V19.2377H26.0567V25.5143H6.28524V129.984L75 163.033L143.715 129.984V25.5143H123.943Z" fill="white"/>
<path d="M35.6703 63.5711H29.2749V83.5026H21.2036V63.5711H14.8081V56.252H35.6703V63.5711Z" fill="white"/>
<path fill-rule="evenodd" clip-rule="evenodd" d="M50.8792 74.7432H47.9157V83.5029H39.8439V56.2522H51.0349C58.5638 56.2522 62.2303 60.0286 62.2303 66.0232C62.2303 69.4891 60.8242 71.8623 58.328 73.2255L64.1392 83.5029H55.3244L50.8792 74.7432ZM47.9157 68.4377H51.0349C52.8682 68.4377 54.0785 67.815 54.0785 66.0232C54.0785 64.389 53.1396 63.5713 51.0349 63.5713H47.9157V68.4377Z" fill="white"/>
<path fill-rule="evenodd" clip-rule="evenodd" d="M75.5265 79.1435H83.873L85.0819 83.5025H93.8174L84.6928 56.2524H74.7067L65.5821 83.5025H74.3176L75.5265 79.1435ZM79.6998 64.0773L82.275 73.3816H77.1245L79.6998 64.0773Z" fill="white"/>
<path d="M105.281 56.2528V83.5032H97.2078V56.2528H105.281Z" fill="white"/>
<path d="M135.192 83.503V56.2528H127.16V70.7738L117.838 56.2528H110.622V83.503H118.698V68.9835L127.976 83.503H135.192Z" fill="white"/>
<path d="M41.8517 95.4129V122.663H33.7778V112.541H25.277V122.663H17.2031V95.4129H25.277V105.34H33.7778V95.4129H41.8517Z" fill="white"/>
<path fill-rule="evenodd" clip-rule="evenodd" d="M56.2425 118.303H64.5879L65.7975 122.664H74.531L65.4048 95.413H55.4211L46.2949 122.664H55.0329L56.2425 118.303ZM60.413 103.238L62.9856 112.541H57.8403L60.413 103.238Z" fill="white"/>
<path fill-rule="evenodd" clip-rule="evenodd" d="M90.0144 113.904H87.0504V122.663H78.9793V95.413H90.1691C97.6962 95.413 101.364 99.189 101.364 105.184C101.364 108.648 99.9566 111.023 97.4617 112.386L103.272 122.663H94.4602L90.0144 113.904ZM87.0504 107.597H90.1691C92.0028 107.597 93.2128 106.974 93.2128 105.184C93.2128 103.548 92.2748 102.732 90.1691 102.732H87.0504V107.597Z" fill="white"/>
<path fill-rule="evenodd" clip-rule="evenodd" d="M118.095 122.663C127.179 122.663 132.796 117.484 132.796 109.037C132.796 100.59 127.179 95.4128 118.095 95.4128H107.72V122.663H118.095ZM118.095 102.731C122.382 102.731 124.724 105.145 124.724 109.037C124.724 112.969 122.382 115.344 118.095 115.344H115.752V102.731H118.095Z" fill="white"/>
<path d="M75.0021 135.419L77.3106 140.097L82.4842 140.848L78.7432 144.489L79.6237 149.63L75.0021 147.204L70.376 149.63L71.2565 144.489L67.5155 140.848L72.6891 140.097L75.0021 135.419Z" fill="white"/>
<path d="M96.2945 137.677L94.4865 134.023L92.6833 137.677L88.6422 138.263L91.5667 141.108L90.8753 145.125L94.4865 143.228L98.1025 145.125L97.4111 141.108L100.336 138.263L96.2945 137.677Z" fill="white"/>
<path d="M55.5108 134.023L53.7023 137.677L49.6642 138.263L52.5853 141.108L51.8983 145.124L55.5108 143.228L59.1234 145.124L58.432 141.108L61.3575 138.263L57.3149 137.677L55.5108 134.023Z" fill="white"/>
<path d="M78.9008 19.2332C78.7192 19.4294 78.5375 19.6288 78.3605 19.835C78.1879 19.6288 78.0063 19.4294 77.8202 19.2332H78.9008Z" fill="white"/>
<path d="M85.0821 19.8349C85.2562 19.6286 85.4394 19.4292 85.6227 19.233H84.5415C84.7293 19.4292 84.908 19.6286 85.0821 19.8349Z" fill="white"/>
<path d="M75.5409 19.233C75.3556 19.4292 75.1748 19.6286 74.9985 19.8348C74.8268 19.6286 74.646 19.4292 74.4607 19.233H75.5409Z" fill="white"/>
<path d="M65.457 19.2335C65.2742 19.4297 65.0915 19.6291 64.9176 19.8356C64.7437 19.6291 64.561 19.4297 64.3737 19.2335H65.457Z" fill="white"/>
<path d="M71.639 19.835C71.8144 19.6289 71.9944 19.4295 72.1789 19.2333H71.0991C71.2836 19.4295 71.4635 19.6289 71.639 19.835Z" fill="white"/>
<path d="M68.819 19.2332C68.6354 19.4295 68.4518 19.6289 68.2772 19.8349C68.1025 19.6289 67.9234 19.4295 67.7398 19.2332H68.819Z" fill="white"/>
</svg>
