<svg width="60" height="68" viewBox="0 0 60 68" fill="none" xmlns="http://www.w3.org/2000/svg">
<path fill-rule="evenodd" clip-rule="evenodd" d="M45.8 7.33699H45.6378V3.96519C45.6378 3.06548 44.9069 2.33606 44.0061 2.33606C43.1054 2.33606 42.3745 3.06548 42.3745 3.96519V1.62894C42.3745 0.729227 41.6436 0 40.7428 0C39.8402 0 39.1093 0.729227 39.1093 1.62894C39.1093 0.729227 38.3803 0 37.4776 0C36.5769 0 35.846 0.729227 35.846 1.62894V7.69322H35.1609C35.2448 7.78142 35.3269 7.87096 35.4032 7.9643C35.5216 8.1066 35.6342 8.25386 35.7315 8.41749C35.5674 8.3211 35.4185 8.20852 35.2773 8.09117C35.1342 7.97307 34.9987 7.84867 34.8689 7.71856L34.8645 7.71384C34.8583 7.70706 34.8518 7.70001 34.8441 7.69322H34.5655C34.5578 7.7016 34.5502 7.71037 34.5407 7.71856C34.4166 7.84353 34.2868 7.96277 34.1494 8.07669C34.2353 8.18451 34.3155 8.29653 34.3861 8.41749C34.2601 8.34358 34.1437 8.25995 34.033 8.17213C33.9204 8.25995 33.8059 8.34358 33.68 8.41749C33.7506 8.29653 33.8308 8.18451 33.9166 8.07669C33.7792 7.96277 33.6495 7.84353 33.5254 7.71856C33.5159 7.71037 33.5082 7.7016 33.5006 7.69322H33.222C33.2142 7.70002 33.2078 7.70706 33.2015 7.71385L33.1972 7.71856C33.0731 7.84353 32.9415 7.96277 32.806 8.07669C32.8899 8.18451 32.9701 8.29653 33.0426 8.41749C32.9166 8.34358 32.8002 8.25995 32.6876 8.17213C32.577 8.25995 32.4605 8.34358 32.3346 8.41749C32.4071 8.29653 32.4873 8.18451 32.5712 8.07669C32.4357 7.96277 32.306 7.84353 32.18 7.71856C32.1754 7.71364 32.1708 7.70851 32.1663 7.70339L32.1571 7.69322H31.8766L31.8737 7.69641C31.867 7.7038 31.8601 7.71141 31.8518 7.71856C31.7277 7.84353 31.598 7.96277 31.4606 8.07669C31.5464 8.18451 31.6266 8.29653 31.6972 8.41749C31.5712 8.34358 31.4567 8.25995 31.3441 8.17213C31.2315 8.25995 31.117 8.34358 30.9911 8.41749C31.0617 8.29653 31.1438 8.18451 31.2277 8.07669C31.0903 7.96277 30.9606 7.84353 30.8365 7.71856C30.8282 7.7114 30.8213 7.7038 30.8146 7.6964L30.8117 7.69322H30.5331C30.5253 7.70002 30.5189 7.70706 30.5126 7.71385L30.5083 7.71856C30.3842 7.84353 30.2526 7.96277 30.1171 8.07669C30.201 8.18451 30.2812 8.29653 30.3537 8.41749C30.2278 8.34358 30.1113 8.25995 30.0007 8.17213C29.8881 8.25995 29.7716 8.34358 29.6457 8.41749C29.7182 8.29653 29.7984 8.18451 29.8823 8.07669C29.7468 7.96277 29.6171 7.84353 29.4911 7.71856L29.4834 7.71013L29.4774 7.7034L29.4682 7.69322H29.1877C29.1801 7.7016 29.1724 7.71037 29.1648 7.71856C29.0388 7.84353 28.9091 7.96277 28.7717 8.07669C28.8575 8.18451 28.9377 8.29653 29.0083 8.41749C28.8843 8.34358 28.7679 8.25995 28.6553 8.17213C28.5446 8.25995 28.4282 8.34358 28.3022 8.41749C28.3728 8.29653 28.4549 8.18451 28.5388 8.07669C28.4033 7.96277 28.2717 7.84353 28.1476 7.71856C28.14 7.71037 28.1305 7.7016 28.1228 7.69322H27.8442C27.8395 7.69732 27.8358 7.70151 27.8321 7.70568C27.8282 7.71003 27.8243 7.71438 27.8194 7.71856C27.6954 7.84353 27.5637 7.96277 27.4282 8.07669C27.5122 8.18451 27.5923 8.29653 27.6648 8.41749C27.5389 8.34358 27.4224 8.25995 27.3118 8.17213C27.1992 8.25995 27.0828 8.34358 26.9587 8.41749C27.0293 8.29653 27.1095 8.18451 27.1934 8.07669C27.0579 7.96277 26.9282 7.84353 26.8022 7.71856C26.7977 7.71368 26.7931 7.70859 26.7886 7.7035L26.7793 7.69322H26.4988L26.4897 7.70339L26.4846 7.70908L26.4759 7.71856C26.3499 7.84353 26.2202 7.96277 26.0847 8.07669C26.1687 8.18451 26.2488 8.29653 26.3194 8.41749C26.1954 8.34358 26.079 8.25995 25.9664 8.17213C25.8557 8.25995 25.7393 8.34358 25.6133 8.41749C25.6858 8.29653 25.766 8.18451 25.85 8.07669C25.7145 7.96277 25.5847 7.84353 25.4587 7.71856L25.4544 7.71384C25.4482 7.70706 25.4417 7.70001 25.4339 7.69322H25.1553L25.1524 7.69641C25.1457 7.70381 25.1388 7.7114 25.1305 7.71856C25.0007 7.84867 24.8652 7.97307 24.7221 8.09117C24.5809 8.20852 24.434 8.3211 24.2698 8.41749C24.3653 8.25386 24.4778 8.1066 24.5962 7.9643C24.6744 7.87096 24.7565 7.78142 24.8385 7.69322H24.1534V1.62894C24.1534 0.729227 23.4225 0 22.5218 0C21.621 0 20.8901 0.729227 20.8901 1.62894C20.8901 0.729227 20.1592 0 19.2585 0C18.3558 0 17.6249 0.729227 17.6249 1.62894V3.96519C17.6249 3.06548 16.8959 2.33606 15.9951 2.33606H15.9932C15.0925 2.33606 14.3616 3.06548 14.3616 3.96519V7.33699H14.1994C13.7586 7.33699 13.3998 7.69398 13.3998 8.13422V10.2019C13.3998 10.6421 13.7586 10.9991 14.1994 10.9991H14.3616V14.3709C14.3616 15.2706 15.0925 16 15.9932 16H15.9951C16.8959 16 17.6249 15.2706 17.6249 14.3709V16.7072C17.6249 17.6069 18.3558 18.3363 19.2585 18.3363C20.1592 18.3363 20.8901 17.6069 20.8901 16.7072C20.8901 17.6069 21.621 18.3363 22.5218 18.3363C23.4225 18.3363 24.1534 17.6069 24.1534 16.7072V10.6429H35.846V16.7072C35.846 17.6069 36.5769 18.3363 37.4776 18.3363C38.3803 18.3363 39.1093 17.6069 39.1093 16.7072C39.1093 17.6069 39.8402 18.3363 40.7428 18.3363C41.6436 18.3363 42.3745 17.6069 42.3745 16.7072V14.3709C42.3745 15.2706 43.1054 16 44.0061 16C44.9069 16 45.6378 15.2706 45.6378 14.3709V10.9991H45.8C46.2428 10.9991 46.5996 10.6421 46.5996 10.2019V8.13422C46.5996 7.69398 46.2428 7.33699 45.8 7.33699ZM44.2542 6.98381C44.2046 7.35775 44.1378 7.73151 44.0061 8.10546C43.8745 7.73151 43.8077 7.35775 43.7581 6.98381C43.7123 6.61005 43.6913 6.23611 43.6913 5.86216C43.6932 5.48841 43.7142 5.11446 43.76 4.74071C43.8096 4.36676 43.8745 3.99282 44.0061 3.61906C44.1378 3.99282 44.2027 4.36676 44.2523 4.74071C44.2981 5.11446 44.3191 5.48841 44.321 5.86216C44.321 6.23611 44.2981 6.61005 44.2542 6.98381ZM40.989 4.74071C40.9394 5.11446 40.8745 5.48841 40.7428 5.86216C40.6093 5.48841 40.5444 5.11446 40.4948 4.74071C40.449 4.36676 40.428 3.99282 40.428 3.61906C40.428 3.24512 40.449 2.87136 40.4967 2.49742C40.5444 2.12366 40.6112 1.74972 40.7428 1.37577C40.8726 1.74972 40.9394 2.12366 40.989 2.49742C41.0348 2.87136 41.0558 3.24512 41.0558 3.61906C41.0577 3.99282 41.0348 4.36676 40.989 4.74071ZM37.7257 4.74071C37.6761 5.11446 37.6093 5.48841 37.4776 5.86216C37.346 5.48841 37.2792 5.11446 37.2314 4.74071C37.1856 4.36676 37.1647 3.99282 37.1647 3.61906C37.1647 3.24512 37.1856 2.87136 37.2314 2.49742C37.2811 2.12366 37.3479 1.74972 37.4776 1.37577C37.6093 1.74972 37.6761 2.12366 37.7238 2.49742C37.7696 2.87136 37.7925 3.24512 37.7925 3.61906C37.7925 3.99282 37.7715 4.36676 37.7257 4.74071ZM22.7699 4.74071C22.7202 5.11446 22.6534 5.48841 22.5218 5.86216C22.3901 5.48841 22.3233 5.11446 22.2737 4.74071C22.2279 4.36676 22.2069 3.99282 22.2069 3.61906C22.2088 3.24512 22.2298 2.87136 22.2756 2.49742C22.3252 2.12366 22.3901 1.74972 22.5218 1.37577C22.6534 1.74972 22.7183 2.12366 22.768 2.49742C22.8138 2.87136 22.8347 3.24512 22.8366 3.61906C22.8366 3.99282 22.8137 4.36676 22.7699 4.74071ZM19.5046 4.74071C19.455 5.11446 19.3901 5.48841 19.2585 5.86216C19.1268 5.48841 19.06 5.11446 19.0104 4.74071C18.9646 4.36676 18.9436 3.99282 18.9436 3.61906C18.9436 3.24512 18.9665 2.87136 19.0123 2.49742C19.06 2.12366 19.1268 1.74972 19.2585 1.37577C19.3882 1.74972 19.455 2.12366 19.5046 2.49742C19.5504 2.87136 19.5714 3.24512 19.5714 3.61906C19.5733 3.99282 19.5504 4.36676 19.5046 4.74071ZM16.2413 6.98381C16.1917 7.35775 16.1249 7.73151 15.9951 8.10546C15.8616 7.73151 15.7967 7.35775 15.7471 6.98381C15.7013 6.61005 15.6784 6.23611 15.6803 5.86216C15.6803 5.48841 15.7013 5.11446 15.7471 4.74071C15.7967 4.36676 15.8635 3.99282 15.9951 3.61906C16.1249 3.99282 16.1917 4.36676 16.2413 4.74071C16.2852 5.11446 16.3081 5.48841 16.3081 5.86216C16.3081 6.23611 16.2871 6.61005 16.2413 6.98381Z" fill="white"/>
<path d="M32.688 7.93386C32.7592 7.85154 32.8303 7.77178 32.9051 7.6931H32.4728C32.5457 7.77178 32.6187 7.85154 32.688 7.93386Z" fill="white"/>
<path d="M49.5773 10.2057V7.69509H60V53.5702L30 68L0 53.5702V7.69509H10.4227V10.2057H2.5141V51.9934L30 65.2134L57.4859 51.9934V10.2057H49.5773Z" fill="white"/>
<path d="M14.2681 25.4284H11.7099V33.401H8.48143V25.4284H5.92325V22.5008H14.2681V25.4284Z" fill="white"/>
<path fill-rule="evenodd" clip-rule="evenodd" d="M20.3517 29.8973H19.1663V33.4011H15.9376V22.5009H20.414C23.4255 22.5009 24.8921 24.0114 24.8921 26.4093C24.8921 27.7956 24.3297 28.7449 23.3312 29.2902L25.6557 33.4011H22.1298L20.3517 29.8973ZM19.1663 27.3751H20.414C21.1473 27.3751 21.6314 27.126 21.6314 26.4093C21.6314 25.7556 21.2558 25.4285 20.414 25.4285H19.1663V27.3751Z" fill="white"/>
<path fill-rule="evenodd" clip-rule="evenodd" d="M30.2106 31.6574H33.5492L34.0328 33.401H37.5269L33.8771 22.501H29.8827L26.2329 33.401H29.7271L30.2106 31.6574ZM31.8799 25.6309L32.91 29.3527H30.8498L31.8799 25.6309Z" fill="white"/>
<path d="M42.1125 22.5011V33.4013H38.8831V22.5011H42.1125Z" fill="white"/>
<path d="M54.0768 33.4012V22.5011H50.864V28.3095L47.1353 22.5011H44.2489V33.4012H47.4793V27.5934L51.1903 33.4012H54.0768Z" fill="white"/>
<path d="M16.7407 38.1651V49.0653H13.5111V45.0162H10.1108V49.0653H6.88125V38.1651H10.1108V42.136H13.5111V38.1651H16.7407Z" fill="white"/>
<path fill-rule="evenodd" clip-rule="evenodd" d="M22.497 47.3211H25.8352L26.319 49.0654H29.8124L26.1619 38.1652H22.1684L18.518 49.0654H22.0132L22.497 47.3211ZM24.1652 41.2952L25.1942 45.0165H23.1361L24.1652 41.2952Z" fill="white"/>
<path fill-rule="evenodd" clip-rule="evenodd" d="M36.0057 45.5617H34.8202V49.0652H31.5917V38.1652H36.0676C39.0785 38.1652 40.5454 39.6756 40.5454 42.0736C40.5454 43.4593 39.9827 44.4093 38.9847 44.9546L41.3089 49.0652H37.7841L36.0057 45.5617ZM34.8202 43.0388H36.0676C36.8011 43.0388 37.2851 42.7897 37.2851 42.0736C37.2851 41.4194 36.9099 41.0928 36.0676 41.0928H34.8202V43.0388Z" fill="white"/>
<path fill-rule="evenodd" clip-rule="evenodd" d="M47.2381 49.0652C50.8718 49.0652 53.1182 46.9937 53.1182 43.6149C53.1182 40.236 50.8718 38.1651 47.2381 38.1651H43.0881V49.0652H47.2381ZM47.2381 41.0926C48.9526 41.0926 49.8898 42.0578 49.8898 43.6149C49.8898 45.1877 48.9526 46.1378 47.2381 46.1378H46.3009V41.0926H47.2381Z" fill="white"/>
<path d="M30.0009 54.1678L30.9242 56.039L32.9937 56.339L31.4973 57.7958L31.8495 59.852L30.0009 58.8815L28.1504 59.852L28.5026 57.7958L27.0062 56.339L29.0756 56.039L30.0009 54.1678Z" fill="white"/>
<path d="M38.5178 55.0706L37.7946 53.6091L37.0733 55.0706L35.4569 55.3051L36.6267 56.4434L36.3501 58.0498L37.7946 57.2914L39.241 58.0498L38.9644 56.4434L40.1342 55.3051L38.5178 55.0706Z" fill="white"/>
<path d="M22.2043 53.6091L21.4809 55.0707L19.8657 55.305L21.0341 56.4433L20.7593 58.0498L22.2043 57.2912L23.6494 58.0498L23.3728 56.4433L24.543 55.305L22.926 55.0707L22.2043 53.6091Z" fill="white"/>
<path d="M31.5603 7.69327C31.4877 7.77177 31.415 7.85153 31.3442 7.93402C31.2752 7.85153 31.2025 7.77177 31.1281 7.69327H31.5603Z" fill="white"/>
<path d="M34.0328 7.93395C34.1025 7.85145 34.1758 7.77168 34.2491 7.69321H33.8166C33.8917 7.77168 33.9632 7.85145 34.0328 7.93395Z" fill="white"/>
<path d="M30.2164 7.69319C30.1422 7.77169 30.0699 7.85146 29.9994 7.93393C29.9307 7.85146 29.8584 7.77169 29.7843 7.69319H30.2164Z" fill="white"/>
<path d="M26.1828 7.6934C26.1097 7.77189 26.0366 7.85164 25.967 7.93423C25.8975 7.85164 25.8244 7.77189 25.7495 7.6934H26.1828Z" fill="white"/>
<path d="M28.6556 7.93402C28.7258 7.85156 28.7978 7.7718 28.8715 7.6933H28.4396C28.5134 7.7718 28.5854 7.85156 28.6556 7.93402Z" fill="white"/>
<path d="M27.5276 7.69329C27.4542 7.77179 27.3807 7.85154 27.3109 7.93398C27.241 7.85154 27.1694 7.77179 27.0959 7.69329H27.5276Z" fill="white"/>
</svg>
