<svg width="60" height="60" viewBox="0 0 60 60" fill="none" xmlns="http://www.w3.org/2000/svg">
<rect width="60" height="60" fill="#95E82C"/>
<mask id="mask0_2_228" style="mask-type:alpha" maskUnits="userSpaceOnUse" x="15" y="15" width="30" height="30">
<rect x="15" y="15" width="30" height="30" fill="#C4C4C4"/>
</mask>
<g mask="url(#mask0_2_228)">
<path d="M44.4335 16.8712C43.9218 16.4419 43.118 16.3804 42.2869 16.7105H42.2856C41.4115 17.0575 17.5442 27.1852 16.5726 27.599C16.3959 27.6597 14.8525 28.2294 15.0115 29.4984C15.1534 30.6426 16.3938 31.1164 16.5453 31.1711L22.6131 33.2265C23.0157 34.5522 24.4997 39.4432 24.8279 40.4881C25.0326 41.1395 25.3663 41.9954 25.951 42.1716C26.4641 42.3673 26.9745 42.1885 27.3047 41.932L31.0144 38.5279L37.0031 43.1483L37.1457 43.2327C37.5524 43.4109 37.942 43.5 38.3138 43.5C38.6011 43.5 38.8767 43.4467 39.1401 43.34C40.0373 42.9755 40.3962 42.1297 40.4338 42.0339L44.907 19.0319C45.1799 17.8033 44.8006 17.1783 44.4335 16.8712ZM27.9645 34.0486L25.9176 39.4486L23.8706 32.6986L39.5638 21.2236L27.9645 34.0486Z" fill="black"/>
</g>
</svg>
